<svg xmlns="http://www.w3.org/2000/svg" viewBox="0 0 213.7 59.33"><defs><style>.cls-1{fill:#fbb515;}.cls-2{fill:#ff6c00;}.cls-3{fill:#34bed0;}</style></defs><title>Asset 4</title><g id="Layer_2" data-name="Layer 2"><g id="text"><path class="cls-1" d="M1,12.26A3.44,3.44,0,0,0,4.61,15.9a3.57,3.57,0,0,0,3.72-3.66c0-2.1-1.13-2.82-2.93-3.45L3.57,8.15C1.45,7.43.29,6.39.29,4.2A4,4,0,0,1,4.61,0c3,0,4.31,1.69,4.31,4.38H8C8,2.21,7,.77,4.7.77c-1.81,0-3.46.83-3.46,3.34A3,3,0,0,0,3.61,7.23L6,8.06c2.07.73,3.27,1.74,3.27,4.11a4.37,4.37,0,0,1-4.67,4.5C.88,16.67,0,14.05,0,12.49V11.43H1Z"/><path class="cls-1" d="M19.54,4.9C19.54,2.73,18.38.77,16,.77c-3.2,0-4.26,3-4.26,7.54,0,4.34.88,7.59,4.13,7.59s3.86-3.66,3.86-4.92h1c0,1.89-1,5.69-5,5.69-3.5,0-4.92-3.1-4.92-8.31C10.8,3.3,12.22,0,16,0s4.51,3.32,4.51,4.9Z"/><path class="cls-1" d="M22.46.27h.95V16.4h-.95Z"/><path class="cls-1" d="M26,.27h7.71v.86H26.93V7.57h6.3v.85h-6.3v7.12h7v.86H26Z"/><path class="cls-1" d="M36.71.27l7,14.64h.05V.27h.95V16.4H43.48l-7-14.64h0V16.4h-.94V.27Z"/><path class="cls-1" d="M55.52,4.9C55.52,2.73,54.37.77,52,.77c-3.21,0-4.27,3-4.27,7.54,0,4.34.88,7.59,4.13,7.59s3.86-3.66,3.86-4.92h1c0,1.89-1,5.69-5,5.69-3.5,0-4.92-3.1-4.92-8.31C46.78,3.3,48.2,0,52,0s4.52,3.32,4.52,4.9Z"/><path class="cls-1" d="M58.46.27h7.7v.86H59.4V7.57h6.3v.85H59.4v7.12h7v.86h-7.9Z"/><path class="cls-1" d="M83.38,8.33c0,7.07-2.91,8.34-5.19,8.34C75.1,16.67,73,14.59,73,8.33S75.23,0,78.19,0C81.4,0,83.38,2.08,83.38,8.33Zm-9.46,0c0,4.43.9,7.57,4.27,7.57,3,0,4.25-2.44,4.25-7.57,0-4.36-1-7.56-4.25-7.56S73.92,3.91,73.92,8.33Z"/><path class="cls-1" d="M85.62.27h.94V15.54h6.76v.86h-7.7Z"/><path class="cls-1" d="M95.89,9.76,91.49.27h1l3.84,8.49L100.3.27h1L96.84,9.76V16.4h-1Z"/><path class="cls-1" d="M113.85,1.49h0L109.17,16.4h-1L103.59,1.49h0V16.4h-1V.27h1.53l4.59,14.5h0L113.24.27h1.55V16.4h-.94Z"/><path class="cls-1" d="M117.39.27h4.18C125.34.34,126,3,126,4.74c0,2.74-1.7,4.47-4.59,4.47h-3V16.4h-1Zm4.06,8.18c1.92,0,3.55-1,3.55-3.71,0-2.3-1.22-3.7-3.41-3.7h-3.25V8.45Z"/><path class="cls-1" d="M127.84.27h.95V16.4h-.95Z"/><path class="cls-1" d="M138.64,11.38h-6.08l-1.54,5h-.94l5-16.13h1.2l4.83,16.13h-1Zm-3-10.16h-.05l-2.84,9.39h5.66Z"/><path class="cls-1" d="M142.4.27h3.69c3.41,0,5.8,1.45,5.8,8.06s-2.76,8.07-5.8,8.07H142.4Zm3.69,15.36c3.43,0,4.85-2.35,4.85-7.3S149.79,1,146.09,1h-2.74V15.63Z"/><path class="cls-2" d="M59.57,21.24H64.1l3.24,10.89h0V21.24h3.66V38H66.59L63.14,26.45h0V38H59.57Z"/><path class="cls-2" d="M77.1,21.24H82L86.2,38H82.12l-.61-3.2h-4L76.91,38H72.83Zm2.39,3.05h0l-1.39,7.46h2.86Z"/><path class="cls-2" d="M89.27,24.43H85.75V21.24h11v3.19H93.21V38H89.27Z"/><path class="cls-2" d="M98.59,21.24h3.94V38H98.59Z"/><path class="cls-2" d="M110.79,38.32c-5.18,0-5.89-3.38-5.89-8.7s.71-8.71,5.89-8.71c5.59,0,5.89,4.06,5.89,8.71S116.38,38.32,110.79,38.32Zm0-2.62c1.6,0,1.83-1.48,1.83-6.08s-.23-6.08-1.83-6.08S109,25,109,29.62,109.22,35.7,110.77,35.7Z"/><path class="cls-2" d="M119.06,21.24h4.52l3.24,10.89h.05V21.24h3.66V38h-4.46l-3.45-11.55h-.05V38h-3.51Z"/><path class="cls-2" d="M136.58,21.24h4.93L145.69,38H141.6L141,34.8h-4l-.59,3.2h-4.08ZM139,24.29h0l-1.39,7.46h2.86Z"/><path class="cls-2" d="M147.48,21.24h3.94V34.8h5.7V38h-9.64Z"/><path class="cls-2" d="M89.13,46H85.75V42.92H96.31V46H92.92V59H89.13Z"/><path class="cls-2" d="M102.51,59.33c-5,0-5.66-3.24-5.66-8.36s.68-8.37,5.66-8.37c5.37,0,5.66,3.9,5.66,8.37S107.88,59.33,102.51,59.33Zm0-2.52c1.53,0,1.76-1.42,1.76-5.84s-.23-5.84-1.76-5.84-1.71,1.42-1.71,5.84S101,56.81,102.49,56.81Z"/><path class="cls-2" d="M120.56,53.7c0,3.15-.9,5.63-5.3,5.63S110,56.85,110,53.7V42.92h3.79V54.8c0,1.27.49,2,1.51,2s1.51-.74,1.51-2V42.92h3.79Z"/><path class="cls-2" d="M122.7,42.92h6.36c3.23,0,4.33,2,4.33,4.19s-.94,3.5-2.7,3.93v0c2.41.34,2.55,1.85,2.59,4,.07,3.18.18,3.49.72,3.72V59h-4.08a7.53,7.53,0,0,1-.41-3.27c0-2.8-.38-3.38-1.57-3.38h-1.45V59H122.7Zm3.79,6.79h1.17a1.86,1.86,0,0,0,1.94-2.1c0-1.22-.45-2-2-2h-1.15Z"/><path class="cls-2" d="M135.65,42.92H140l3.12,10.46h0V42.92h3.52V59h-4.29l-3.31-11.1H139V59h-3.38Z"/><path class="cls-2" d="M152,42.92h4.74l4,16.1h-3.93L156.24,56h-3.85L151.82,59H147.9Zm2.31,2.93h-.05L152.93,53h2.75Z"/><path class="cls-2" d="M162.09,42.92h5.55l2,10.57h0l1.91-10.57h5.48V59h-3.52V46.48h0L171,59h-2.93l-2.59-12.54h-.05V59h-3.38Z"/><path class="cls-2" d="M179.52,42.92h9.32V46h-5.53v3.23h5.19v3.07h-5.19V56h5.78V59h-9.57Z"/><path class="cls-2" d="M190.8,42.92h4.36l3.11,10.46h0V42.92h3.52V59h-4.28l-3.32-11.1h0V59H190.8Z"/><path class="cls-2" d="M206.53,46h-3.39V42.92H213.7V46h-3.39V59h-3.78Z"/><path class="cls-3" d="M17,38a4.57,4.57,0,0,1,1.6-3.41,20.75,20.75,0,0,1,2.67-1.79c.78-.51,1.34-1,1.34-1.7a1.21,1.21,0,0,0-1.32-1.28c-1.32,0-1.69.95-1.7,2.07H17.25a3.78,3.78,0,0,1,4-4.26c2,0,3.84,1.06,3.84,3.25,0,2-1.41,2.7-2.91,3.62a9.28,9.28,0,0,0-1.85,1.38h4.86V38Z"/><path class="cls-3" d="M26.33,32.87c0-2.73,1.1-5.24,4-5.24s4.17,2.51,4.17,5.24-1.17,5.26-4.17,5.26S26.33,35.6,26.33,32.87Zm5.77,0c0-1.33-.05-3.21-1.69-3.21s-1.67,1.88-1.67,3.21.08,3.23,1.67,3.23S32.1,34.21,32.1,32.87Z"/><path class="cls-3" d="M35.4,38A4.53,4.53,0,0,1,37,34.59a20.75,20.75,0,0,1,2.67-1.79c.78-.51,1.34-1,1.34-1.7a1.21,1.21,0,0,0-1.32-1.28c-1.33,0-1.69.95-1.71,2.07H35.65a3.78,3.78,0,0,1,4-4.26c2,0,3.83,1.06,3.83,3.25,0,2-1.41,2.7-2.9,3.62a9.28,9.28,0,0,0-1.85,1.38H43.6V38Z"/><path class="cls-3" d="M44.69,38a4.5,4.5,0,0,1,1.6-3.41A20.75,20.75,0,0,1,49,32.8c.78-.51,1.33-1,1.33-1.7A1.21,1.21,0,0,0,49,29.82c-1.32,0-1.68.95-1.7,2.07H44.94a3.78,3.78,0,0,1,4-4.26c2,0,3.83,1.06,3.83,3.25,0,2-1.41,2.7-2.91,3.62A9.58,9.58,0,0,0,48,35.88h4.86V38Z"/></g></g></svg>