<svg id="Layer_1" data-name="Layer 1" xmlns="http://www.w3.org/2000/svg" viewBox="0 0 1944 720"><defs><style>.cls-1{fill:#e78e6c;}.cls-2{fill:#fff;}</style></defs><title>logo_temp</title><path class="cls-1" d="M1944,0V490.28c-16.21-4.06-32.17-9.26-48.51-12.65-28.82-5.99-57.76-11.47-86.81-16.24-26.29-4.31-52.69-8.66-79.21-10.63-23.9-1.77-44.73-9.78-64.58-22.3-11.77-7.42-24.05-14.06-36.36-20.56-35.27-18.64-72.41-25.74-111.99-17.69-34.01,6.91-68.24,12.3-103.1,10.5-20.65-1.06-41.26-2.94-61.86-4.72-31.32-2.7-62.63-5.18-93.52-11.61-22.98-4.78-46.14-8.8-69.33-12.41-42.07-6.56-84.34-11.84-126.3-19.02a542.033,542.033,0,0,0-91.5-7.45c-10.71,0-21.43-1.31-32.12-2.3-10.5-.98-20.26-3.6-27.61-12.18-2.51-2.94-6.26-4.85-9.54-7.09-30.89-21.07-62.25-41.49-92.55-63.37-21.1-15.25-42.62-29.17-67.23-38.09-5.9-2.13-11.12-6.11-16.72-9.11-8.73-4.66-17.23-9.91-26.35-13.66-17.5-7.21-36.33-8.29-54.92-10.51-37.96-4.53-75.98-7.77-114.22-8.83-22.75-.62-41.54,5.59-54.88,24.81-4.43,6.38-10.3,9.68-18.3,8.86-20.62-2.1-40.39,2.83-60.11,7.7-11.68,2.89-22.84,7.37-32.13,15.21-13.66,11.54-27,23.47-40.46,35.24-2.99,2.61-5.5,6.37-8.97,7.72-14.43,5.59-29.14,10.45-43.74,15.6-8.2,2.89-17.48,4.22-24.38,8.99-23.94,16.56-51.92,24.03-77.76,36.23-27.33,12.91-55.77,23.65-82.39,37.85-21.35,11.4-42.97,20.9-66.89,23.32C9.18,402.96,4.63,408.01,0,416.07V0Z"/><polygon class="cls-2" points="1422.897 375.038 1422.897 391.895 1398.271 391.895 1398.271 383.833 1382.146 383.833 1382.146 403.622 1406.773 403.622 1422.897 419.746 1422.897 457.125 1406.773 473.249 1373.644 473.249 1357.52 457.125 1357.52 440.268 1382.146 440.268 1382.146 448.33 1398.271 448.33 1398.271 428.541 1373.644 428.541 1357.52 412.417 1357.52 375.038 1373.644 358.913 1406.773 358.913 1422.897 375.038"/><path class="cls-2" d="M1484.825,349.312H1451.7l-16.125,16.125v82.087l16.125,16.124h33.128l16.124-16.124V365.437Zm-8.5,89.417H1460.2v-64.5h16.124Z"/><polygon class="cls-2" points="1579.547 353.153 1579.547 467.489 1554.921 467.489 1546.077 442.57 1538.796 422.048 1538.796 467.489 1514.17 467.489 1514.17 353.153 1538.796 353.153 1538.796 353.434 1547.539 378.073 1554.921 398.876 1554.921 353.153 1579.547 353.153"/><polygon class="cls-2" points="1660.71 362.362 1660.71 387.282 1635.791 387.282 1635.791 476.698 1612.337 476.698 1612.337 387.282 1587.418 387.282 1587.418 362.362 1660.71 362.362"/><polygon class="cls-2" points="1733.835 382.807 1733.835 420.186 1717.711 436.31 1693.085 436.31 1693.085 456.099 1733.835 456.099 1733.835 481.018 1668.459 481.018 1668.459 427.515 1684.583 411.391 1709.209 411.391 1709.209 391.602 1693.085 391.602 1693.085 399.664 1668.459 399.664 1668.459 382.807 1684.583 366.682 1717.711 366.682 1733.835 382.807"/><polygon class="cls-2" points="1811.57 376.478 1811.57 413.857 1795.446 429.981 1770.82 429.981 1770.82 449.77 1811.57 449.77 1811.57 474.689 1746.193 474.689 1746.193 421.186 1762.318 405.062 1786.944 405.062 1786.944 385.273 1770.82 385.273 1770.82 393.335 1746.193 393.335 1746.193 376.478 1762.318 360.353 1795.446 360.353 1811.57 376.478"/></svg>