<svg xmlns="http://www.w3.org/2000/svg" viewBox="0 0 20.05 30.12"><defs><style>.cls-1{fill:none;}.cls-2{fill:#fff;}</style></defs><title>Asset 48</title><g id="Layer_2" data-name="Layer 2"><g id="background"><rect class="cls-1" width="20.05" height="30.12"/><path class="cls-2" d="M16.19,7a1.12,1.12,0,0,1-.31.36.66.66,0,0,1-.42.13,1.16,1.16,0,0,1-.64-.28,11.17,11.17,0,0,0-.94-.61A7.34,7.34,0,0,0,12.54,6a5.66,5.66,0,0,0-1.91-.28A5.49,5.49,0,0,0,8.78,6a4.11,4.11,0,0,0-1.35.77,3.17,3.17,0,0,0-.81,1.15A3.48,3.48,0,0,0,6.34,9.3a2.64,2.64,0,0,0,.48,1.62A4.21,4.21,0,0,0,8.08,12a10.84,10.84,0,0,0,1.78.79l2.05.68q1,.36,2,.81a7.06,7.06,0,0,1,1.78,1.12A5.12,5.12,0,0,1,17,17.08a5.54,5.54,0,0,1,.48,2.43A7.73,7.73,0,0,1,17,22.37a6.6,6.6,0,0,1-1.51,2.33A7,7,0,0,1,13,26.25a8.92,8.92,0,0,1-3.3.57A10,10,0,0,1,5.58,26a9.52,9.52,0,0,1-3.16-2.21l.91-1.49a1.11,1.11,0,0,1,.31-.3.76.76,0,0,1,.42-.12.82.82,0,0,1,.47.17,6.5,6.5,0,0,1,.61.43l.78.56a5.57,5.57,0,0,0,1,.57A6.51,6.51,0,0,0,8.19,24a7.08,7.08,0,0,0,1.6.17,5.92,5.92,0,0,0,2-.31A4.24,4.24,0,0,0,13.27,23a3.94,3.94,0,0,0,.93-1.34A4.41,4.41,0,0,0,14.52,20a3,3,0,0,0-.47-1.73,4.06,4.06,0,0,0-1.26-1.13A8.83,8.83,0,0,0,11,16.34L9,15.7c-.7-.23-1.38-.48-2.05-.77a6.69,6.69,0,0,1-1.78-1.14,5,5,0,0,1-1.25-1.74,6.19,6.19,0,0,1-.48-2.58,6.15,6.15,0,0,1,.48-2.39A6.07,6.07,0,0,1,5.28,5,6.76,6.76,0,0,1,7.53,3.62a8.16,8.16,0,0,1,3.07-.54,9.74,9.74,0,0,1,3.54.62A8.25,8.25,0,0,1,17,5.48Z"/></g></g></svg>