<svg xmlns="http://www.w3.org/2000/svg" viewBox="0 0 669.65 317"><defs><style>.cls-1{fill:none;}.cls-2{fill:#f48632;}.cls-3{fill:#006ea6;}.cls-4{fill:#46a7cc;}.cls-5{fill:#023b5a;}.cls-6{fill:#021b29;}.cls-7{fill:#34bed0;}.cls-8{fill:#b8e2e9;}.cls-9{fill:#fff;}.cls-10{fill:#00a9c2;}.cls-11{fill:#a7dfe7;}.cls-12{fill:#9adaf6;}.cls-13{fill:#fbb515;}.cls-14{fill:#09d;}.cls-15{fill:#0070b7;}.cls-16{fill:#ed4733;}.cls-17{fill:#ff6c00;}.cls-18{fill:#ffd683;}</style></defs><title>shuttle-background-wide-top</title><g id="Layer_2" data-name="Layer 2"><g id="shuttle"><path class="cls-1" d="M0,0V317H554.6v-2.13h-6.11a6.12,6.12,0,0,1-6.12-6.12V290.57a6.11,6.11,0,0,1,2.7-5.07,106.3,106.3,0,0,0,9.55-6.54l0-57.32v-1.3h0V210.13A10.13,10.13,0,0,1,564.79,200h.05v-7.79c0-18.43,11.71-33.38,25.52-33.38S616,173.78,616,192.21V200h0a10.13,10.13,0,0,1,10.14,10.13v10.21h0v5.41h0v14.87h0V246h0v15.64h0v5.41h0v12.07a104.82,104.82,0,0,0,9.3,6.35,6.11,6.11,0,0,1,2.7,5.07v18.18a6.12,6.12,0,0,1-6.12,6.12h-5.88V317h43.49V0Z"/><path class="cls-2" d="M574.92,210.13v10.21h0v5.41h0v14.87h0V246h0v5.54c.82-1.84,1.59-3.72,2.28-5.66.63-1.75,1.22-3.44,1.77-5v-6.06a11.32,11.32,0,0,1,1.17-5h0l7.2-14.73a3.3,3.3,0,0,1,5.87,0l7.38,14.73h0a11.32,11.32,0,0,1,1.17,5v6.58q.75,2.18,1.59,4.52c.76,2.15,1.62,4.23,2.54,6.26V220.34h0V210.13A10.13,10.13,0,0,1,616,200v-7.79c0-18.43-11.86-33.38-25.66-33.38s-25.52,14.95-25.52,33.38V200A10.13,10.13,0,0,1,574.92,210.13Z"/><rect class="cls-2" x="574.92" y="314.87" width="4.05" height="2.13"/><rect class="cls-2" x="601.76" y="314.87" width="4.08" height="2.13"/><path class="cls-3" d="M564.79,267.08v1.69c.41-.56.82-1.12,1.22-1.69Z"/><path class="cls-3" d="M574.92,220.34V210.13A10.13,10.13,0,0,0,564.84,200h-.05v20.34Z"/><rect class="cls-3" x="564.79" y="225.75" width="10.14" height="14.87"/><rect class="cls-3" x="564.79" y="314.87" width="10.14" height="2.13"/><path class="cls-3" d="M564.79,246v15.64h4.82a84.74,84.74,0,0,0,5.31-10.1V246Z"/><rect class="cls-4" x="554.6" y="314.87" width="10.18" height="2.13"/><path class="cls-4" d="M564.79,220.34V200a10.13,10.13,0,0,0-10.14,10.13v10.21Z"/><path class="cls-4" d="M563.19,270.89c.54-.7,1.07-1.41,1.6-2.12v-1.69H554.65v-5.41h10.14V246H554.65v-5.41h10.14V225.75H554.65v-4.11l0,57.32A50.6,50.6,0,0,0,563.19,270.89Z"/><polygon class="cls-5" points="564.79 225.75 564.79 220.34 554.65 220.34 554.65 220.34 554.65 221.64 554.65 225.75 564.79 225.75"/><rect class="cls-5" x="554.65" y="240.62" width="10.14" height="5.41"/><rect class="cls-5" x="554.65" y="261.67" width="10.14" height="5.41"/><polygon class="cls-6" points="574.92 225.75 574.93 225.75 574.93 220.34 574.92 220.34 564.79 220.34 564.79 220.34 564.79 225.75 564.79 225.75 574.92 225.75"/><polygon class="cls-6" points="574.92 246.03 574.93 246.03 574.93 240.62 574.92 240.62 564.79 240.62 564.79 240.62 564.79 246.03 564.79 246.03 574.92 246.03"/><path class="cls-6" d="M564.79,261.67h0v5.41H566q1.88-2.62,3.6-5.41Z"/><path class="cls-3" d="M616,269.14c.44.59.88,1.17,1.33,1.75a50.56,50.56,0,0,0,8.81,8.26V267.08H616Z"/><rect class="cls-3" x="616.02" y="225.75" width="10.14" height="14.87"/><rect class="cls-3" x="616.02" y="246.03" width="10.14" height="15.63"/><path class="cls-3" d="M626.16,220.34V210.13A10.13,10.13,0,0,0,616,200v20.34Z"/><rect class="cls-3" x="616.02" y="314.87" width="10.14" height="2.13"/><rect class="cls-4" x="605.84" y="314.87" width="10.18" height="2.13"/><path class="cls-4" d="M605.89,210.13v10.21H616V200h0A10.13,10.13,0,0,0,605.89,210.13Z"/><path class="cls-4" d="M614.52,267.08c.49.69,1,1.38,1.5,2.06v-2.06h-1.5Z"/><path class="cls-4" d="M616,261.67h0V246H605.88v-5.41H616V225.75H605.88v26.42a85.8,85.8,0,0,0,5.06,9.5Z"/><polygon class="cls-5" points="616.02 225.75 616.02 220.34 605.88 220.34 605.88 220.34 605.88 221.76 605.88 225.75 616.02 225.75"/><rect class="cls-5" x="605.88" y="240.62" width="10.14" height="5.41"/><path class="cls-5" d="M610.93,261.67q1.71,2.79,3.59,5.41H616v-5.41Z"/><polygon class="cls-6" points="616.02 220.34 616.02 225.75 616.02 225.75 626.16 225.75 626.16 225.75 626.16 220.34 626.16 220.34 616.02 220.34 616.02 220.34"/><polygon class="cls-6" points="616.02 240.62 616.02 246.03 616.02 246.03 626.16 246.03 626.16 246.03 626.16 240.62 626.16 240.62 616.02 240.62 616.02 240.62"/><polygon class="cls-6" points="616.02 261.67 616.02 267.08 616.02 267.08 626.16 267.08 626.16 267.08 626.16 261.67 626.16 261.67 616.02 261.67 616.02 261.67"/><path class="cls-7" d="M574.92,314.87H579v-2.82H548.49a3.3,3.3,0,0,1-3.3-3.3V290.57a3.29,3.29,0,0,1,1.4-2.7c1.23-.74,13-7.89,18.81-15.25A91.73,91.73,0,0,0,579,249.17v-8.3c-.55,1.6-1.14,3.29-1.77,5-.69,1.94-1.46,3.82-2.28,5.66a84.74,84.74,0,0,1-5.31,10.1q-1.73,2.79-3.6,5.41c-.4.57-.81,1.13-1.22,1.69-.53.71-1.06,1.42-1.6,2.12a50.6,50.6,0,0,1-8.57,8.07,106.3,106.3,0,0,1-9.55,6.54,6.11,6.11,0,0,0-2.7,5.07v18.18a6.12,6.12,0,0,0,6.12,6.12h26.43Z"/><path class="cls-7" d="M617.35,270.89c-.45-.58-.89-1.16-1.33-1.75s-1-1.37-1.5-2.06q-1.87-2.62-3.59-5.41a85.8,85.8,0,0,1-5.06-9.5c-.92-2-1.78-4.11-2.54-6.26q-.84-2.34-1.59-4.52v8.27a92.16,92.16,0,0,0,13.39,23c5.76,7.36,17.58,14.51,18.82,15.25a3.32,3.32,0,0,1,1.4,2.7v18.18a3.31,3.31,0,0,1-3.31,3.3H601.76v2.82H632a6.12,6.12,0,0,0,6.12-6.12V290.57a6.11,6.11,0,0,0-2.7-5.07,104.82,104.82,0,0,1-9.3-6.35A50.56,50.56,0,0,1,617.35,270.89Z"/><path class="cls-8" d="M579,249.17a91.73,91.73,0,0,1-13.57,23.45c-5.76,7.36-17.58,14.51-18.81,15.25a3.29,3.29,0,0,0-1.4,2.7v18.18a3.3,3.3,0,0,0,3.3,3.3H579V249.17Z"/><path class="cls-8" d="M632,312.05a3.31,3.31,0,0,0,3.31-3.3V290.57a3.32,3.32,0,0,0-1.4-2.7c-1.24-.74-13.06-7.89-18.82-15.25a92.16,92.16,0,0,1-13.39-23v29.87h0v32.52Z"/><path class="cls-5" d="M590.36,223.43a11.35,11.35,0,0,1,10.21,6.38h0l-7.38-14.73a3.3,3.3,0,0,0-5.87,0l-7.2,14.73h0A11.38,11.38,0,0,1,590.36,223.43Z"/><polygon class="cls-9" points="601.76 312.06 601.75 282.52 601.75 282.54 578.97 282.54 578.97 288.75 601.75 288.75 601.75 291.76 578.97 291.76 578.97 297.97 601.75 297.97 601.75 300.98 578.97 300.98 578.97 312.06 578.97 314.87 578.97 317 601.76 317 601.76 314.87 601.76 312.06"/><path class="cls-9" d="M601.75,279.53V234.81a11.39,11.39,0,0,0-22.77,0v44.72Zm-11.39-53.95a9,9,0,0,1,9,9h-4.06a5,5,0,0,0-10.06,0h-4A9,9,0,0,1,590.36,225.58Z"/><path class="cls-5" d="M585.28,234.63a5,5,0,0,1,10.06,0h4.06a9,9,0,1,0-18.09,0Z"/><polygon class="cls-5" points="601.75 279.53 578.97 279.53 578.97 282.54 601.75 282.54 601.75 282.52 601.75 279.53 601.75 279.53"/><rect class="cls-5" x="578.97" y="288.75" width="22.78" height="3.01"/><rect class="cls-5" x="578.97" y="297.97" width="22.78" height="3.01"/></g><g id="satellite"><rect class="cls-10" x="526.65" y="67.58" width="5.33" height="2.15" transform="translate(113.35 403.1) rotate(-46.19)"/><rect class="cls-11" x="512.49" y="53.99" width="5.33" height="2.15" transform="translate(118.5 388.36) rotate(-46.14)"/><rect class="cls-12" x="529.53" y="50.24" width="5.33" height="2.15" transform="translate(126.67 399.76) rotate(-46.18)"/><path class="cls-9" d="M521.46,75.28a3,3,0,0,1-4.19.09l-8.33-8a3,3,0,0,1-.09-4.19L523,48.44a3,3,0,0,1,4.19-.09l8.34,8a3,3,0,0,1,.08,4.19Z"/><path class="cls-9" d="M547.08,50.51a10.07,10.07,0,1,1-14.53-13.95"/><path class="cls-11" d="M532.84,50.8a10.08,10.08,0,0,0,14.24-.29l-7.29-7"/><path class="cls-9" d="M546.12,40.35a2.37,2.37,0,1,0-3.42-3.28,2.39,2.39,0,0,0-.52,2.42l-2,2.11,1.55,1.49,2-2.12A2.34,2.34,0,0,0,546.12,40.35Z"/><path class="cls-11" d="M541,42.37l.74.72,2-2.12a2.36,2.36,0,0,0,2.32-4"/><path class="cls-11" d="M548.51,49a1.17,1.17,0,0,0,0-1.67L535.66,35a1.2,1.2,0,0,0-1.68,0l-1.43,1.49,14.53,13.95Z"/><path class="cls-10" d="M539.79,43.52l7.29,7,1.43-1.5a1.17,1.17,0,0,0,0-1.67l-6.4-6.14"/><path class="cls-11" d="M531.37,52.36l4.16,4a3,3,0,0,1,.08,4.19L521.46,75.28a3,3,0,0,1-4.19.09l-4.22-4.06"/><path class="cls-11" d="M521.51,75.23a3,3,0,0,1-4.19.09l-8.34-8a3,3,0,0,1-.08-4.18"/><path class="cls-10" d="M515.22,69.2l-2.12,2.07,4.22,4a3,3,0,0,0,4.19-.09Z"/><path class="cls-10" d="M497.18,30.43a3,3,0,0,1,4.18-.09l16.78,16.1a3,3,0,0,1,.09,4.18l-7.38,7.7a3,3,0,0,1-4.19.09l-16.78-16.1a3,3,0,0,1-.09-4.19Z"/><rect class="cls-11" x="499.64" y="33.19" width="5.49" height="9.66" rx="0.98" transform="matrix(0.69, -0.72, 0.72, 0.69, 127.16, 374.24)"/><rect class="cls-11" x="507.68" y="40.91" width="5.49" height="9.66" rx="0.98" transform="translate(124.03 382.38) rotate(-46.18)"/><rect class="cls-11" x="494.85" y="38.18" width="5.49" height="9.65" rx="0.98" transform="translate(122.07 372.3) rotate(-46.19)"/><rect class="cls-11" x="502.9" y="45.9" width="5.49" height="9.66" rx="0.98" transform="translate(118.94 380.44) rotate(-46.18)"/><path class="cls-10" d="M533.78,65.55a3,3,0,0,1,4.18-.09l16.78,16.1a3,3,0,0,1,.09,4.18l-7.38,7.7a3,3,0,0,1-4.19.09l-16.78-16.1a3,3,0,0,1-.08-4.19Z"/><path class="cls-11" d="M536.72,68.52a1,1,0,0,1,1.39,0l5.55,5.32a1,1,0,0,1,0,1.39l-2.45,2.55a1,1,0,0,1-1.38,0l-5.55-5.32a1,1,0,0,1,0-1.39Z"/><path class="cls-11" d="M544.76,76.24a1,1,0,0,1,1.39,0l5.55,5.33a1,1,0,0,1,0,1.39l-2.44,2.54a1,1,0,0,1-1.39,0l-5.55-5.33a1,1,0,0,1,0-1.38Z"/><path class="cls-11" d="M531.94,73.51a1,1,0,0,1,1.38,0l5.55,5.33a1,1,0,0,1,0,1.39l-2.44,2.54a1,1,0,0,1-1.39,0l-5.55-5.32a1,1,0,0,1,0-1.39Z"/><path class="cls-11" d="M540,81.23a1,1,0,0,1,1.39,0l5.55,5.33a1,1,0,0,1,0,1.38l-2.45,2.55a1,1,0,0,1-1.38,0l-5.56-5.33a1,1,0,0,1,0-1.39Z"/></g><g id="stars"><path class="cls-13" d="M56.54,301a.62.62,0,0,0-.83-.31l-2.33,1.07-1.07-2.33a.63.63,0,0,0-.83-.31.65.65,0,0,0-.31.84l1.07,2.32-2.32,1.07a.63.63,0,0,0,.26,1.2.58.58,0,0,0,.26-.06l2.32-1.07,1.07,2.33a.64.64,0,0,0,.57.37.58.58,0,0,0,.26-.06.63.63,0,0,0,.31-.84l-1.06-2.32,2.32-1.07A.63.63,0,0,0,56.54,301Z"/><path class="cls-13" d="M46.08,31.92a.72.72,0,0,0-.49-.89l-2.82-.81.81-2.82A.72.72,0,1,0,42.2,27l-.81,2.82L38.57,29a.71.71,0,0,0-.89.49.73.73,0,0,0,.49.89L41,31.2,40.18,34a.7.7,0,0,0,.22.74.65.65,0,0,0,.27.15.72.72,0,0,0,.89-.49l.81-2.82,2.82.81A.72.72,0,0,0,46.08,31.92Z"/><path class="cls-14" d="M633.68,47.29a2.53,2.53,0,0,1-1.24-.3l-5.79-3.35a2.71,2.71,0,0,1-1.24-2.14V34.81a2.71,2.71,0,0,1,1.24-2.14l5.79-3.34a2.69,2.69,0,0,1,2.47,0l5.8,3.34a2.7,2.7,0,0,1,1.23,2.14V41.5a2.7,2.7,0,0,1-1.23,2.14L634.91,47A2.49,2.49,0,0,1,633.68,47.29Zm0-17.33a1.59,1.59,0,0,0-.77.18l-5.79,3.35a1.73,1.73,0,0,0-.77,1.32V41.5a1.76,1.76,0,0,0,.77,1.33l5.79,3.35a1.78,1.78,0,0,0,1.53,0l5.8-3.35A1.76,1.76,0,0,0,641,41.5V34.81a1.73,1.73,0,0,0-.77-1.32l-5.8-3.35A1.53,1.53,0,0,0,633.68,30Z"/><path class="cls-15" d="M633.68,45.34a2.53,2.53,0,0,1-1.24-.3l-4.1-2.37a2.71,2.71,0,0,1-1.24-2.14V35.79a2.71,2.71,0,0,1,1.24-2.14l4.1-2.37a2.69,2.69,0,0,1,2.47,0L639,33.65a2.7,2.7,0,0,1,1.23,2.14v4.74A2.7,2.7,0,0,1,639,42.67L634.91,45A2.49,2.49,0,0,1,633.68,45.34Zm0-13.43a1.59,1.59,0,0,0-.77.18l-4.1,2.37a1.76,1.76,0,0,0-.77,1.33v4.74a1.73,1.73,0,0,0,.77,1.32h0l4.1,2.38a1.78,1.78,0,0,0,1.53,0l4.11-2.38a1.73,1.73,0,0,0,.77-1.32V35.79a1.76,1.76,0,0,0-.77-1.33l-4.11-2.37A1.53,1.53,0,0,0,633.68,31.91Z"/><path class="cls-7" d="M633.68,43.39a2.53,2.53,0,0,1-1.24-.3L630,41.69a2.68,2.68,0,0,1-1.24-2.14V36.76A2.68,2.68,0,0,1,630,34.62l2.41-1.39a2.69,2.69,0,0,1,2.47,0l2.42,1.39a2.71,2.71,0,0,1,1.24,2.14v2.79a2.71,2.71,0,0,1-1.24,2.14l-2.42,1.4A2.49,2.49,0,0,1,633.68,43.39Zm-3.18-2.51,2.41,1.4a1.78,1.78,0,0,0,1.53,0l2.42-1.4a1.76,1.76,0,0,0,.77-1.33V36.76a1.73,1.73,0,0,0-.77-1.32L634.44,34a1.78,1.78,0,0,0-1.53,0l-2.41,1.4a1.73,1.73,0,0,0-.77,1.32v2.79a1.76,1.76,0,0,0,.77,1.33Z"/><path class="cls-16" d="M500.66,136.78a2.4,2.4,0,0,1-1.18-.29l-5.56-3.21a2.58,2.58,0,0,1-1.18-2.05v-6.42a2.57,2.57,0,0,1,1.18-2l5.56-3.21a2.53,2.53,0,0,1,2.36,0l5.56,3.21a2.57,2.57,0,0,1,1.18,2v6.42a2.58,2.58,0,0,1-1.18,2.05l-5.56,3.21A2.4,2.4,0,0,1,500.66,136.78Zm0-16.61a1.41,1.41,0,0,0-.73.17l-5.56,3.2a1.68,1.68,0,0,0-.73,1.27v6.42a1.66,1.66,0,0,0,.73,1.27l5.56,3.21a1.63,1.63,0,0,0,1.46,0L507,132.5a1.66,1.66,0,0,0,.73-1.27v-6.42a1.68,1.68,0,0,0-.73-1.27l-5.56-3.2A1.41,1.41,0,0,0,500.66,120.17Z"/><path class="cls-2" d="M500.66,134.91a2.4,2.4,0,0,1-1.18-.29l-3.94-2.27a2.61,2.61,0,0,1-1.18-2v-4.55a2.58,2.58,0,0,1,1.18-2l3.94-2.27a2.53,2.53,0,0,1,2.36,0l3.94,2.27a2.56,2.56,0,0,1,1.19,2v4.55a2.59,2.59,0,0,1-1.19,2l-3.94,2.27A2.4,2.4,0,0,1,500.66,134.91Zm0-12.87a1.41,1.41,0,0,0-.73.17L496,124.48a1.68,1.68,0,0,0-.73,1.27v4.55a1.68,1.68,0,0,0,.73,1.27l3.94,2.27a1.63,1.63,0,0,0,1.46,0l3.94-2.27a1.68,1.68,0,0,0,.73-1.27v-4.55a1.68,1.68,0,0,0-.73-1.27l-3.94-2.27A1.41,1.41,0,0,0,500.66,122Z"/><path class="cls-13" d="M500.66,133a2.4,2.4,0,0,1-1.18-.29l-2.32-1.34a2.58,2.58,0,0,1-1.18-2v-2.68a2.61,2.61,0,0,1,1.18-2.05l2.32-1.33a2.53,2.53,0,0,1,2.36,0l2.32,1.33a2.59,2.59,0,0,1,1.19,2.05v2.68a2.56,2.56,0,0,1-1.19,2l-2.32,1.34A2.4,2.4,0,0,1,500.66,133Zm0-9.13a1.41,1.41,0,0,0-.73.17l-2.32,1.33a1.68,1.68,0,0,0-.73,1.27v2.68a1.66,1.66,0,0,0,.73,1.27h0l2.32,1.34a1.66,1.66,0,0,0,1.46,0l2.32-1.34a1.68,1.68,0,0,0,.74-1.27v-2.68a1.69,1.69,0,0,0-.74-1.27l-2.32-1.33A1.41,1.41,0,0,0,500.66,123.91Z"/><path class="cls-8" d="M473.75,7.52a.69.69,0,0,0-.55-.79l-2.75-.5.5-2.74a.69.69,0,0,0-.55-.8.7.7,0,0,0-.8.56L469.11,6l-2.75-.5a.68.68,0,0,0-.79.55.69.69,0,0,0,.28.69.81.81,0,0,0,.27.11l2.74.5-.49,2.74a.66.66,0,0,0,.28.68.54.54,0,0,0,.27.11.67.67,0,0,0,.79-.55l.5-2.74,2.74.5A.7.7,0,0,0,473.75,7.52Z"/><path class="cls-17" d="M606,89.72a.64.64,0,0,0-.3-.85l-2.35-1.15,1.14-2.35a.64.64,0,0,0-1.16-.56l-1.14,2.35L599.85,86a.65.65,0,0,0-.86.3.66.66,0,0,0,.08.69.62.62,0,0,0,.22.17l2.35,1.14-1.14,2.35a.64.64,0,0,0,.08.69.62.62,0,0,0,.22.17.63.63,0,0,0,.85-.3l1.15-2.35L605.15,90A.64.64,0,0,0,606,89.72Z"/><path class="cls-13" d="M551.32,154.82a.81.81,0,0,0-.87-.74l-3.27.26-.26-3.27a.81.81,0,1,0-1.61.12l.26,3.28-3.27.26a.79.79,0,0,0-.74.86.81.81,0,0,0,.52.7.69.69,0,0,0,.35,0l3.27-.25.26,3.27a.8.8,0,0,0,.52.69.8.8,0,0,0,1.08-.82L547.3,156l3.28-.26A.82.82,0,0,0,551.32,154.82Z"/><path class="cls-8" d="M27.68,267a.71.71,0,0,0-.58-.82l-2.86-.52.52-2.86a.71.71,0,1,0-1.4-.26l-.52,2.86L20,264.89a.7.7,0,0,0-.83.57.73.73,0,0,0,.29.72.86.86,0,0,0,.28.11l2.86.52-.52,2.86a.72.72,0,0,0,.3.71.7.7,0,0,0,.28.12.71.71,0,0,0,.83-.58l.52-2.86,2.86.52A.71.71,0,0,0,27.68,267Z"/><path class="cls-17" d="M28,138.77a.85.85,0,0,0-.39-1.13l-3.1-1.5L26,133a.84.84,0,0,0-.39-1.13.86.86,0,0,0-1.13.39L23,135.4l-3.09-1.5a.84.84,0,0,0-1.13.39.85.85,0,0,0,.1.91.89.89,0,0,0,.29.22l3.09,1.5-1.5,3.1a.84.84,0,0,0,.11.91.88.88,0,0,0,.28.22.85.85,0,0,0,1.13-.39l1.5-3.1,3.1,1.5A.85.85,0,0,0,28,138.77Z"/><path class="cls-10" d="M462.74,282.9a.91.91,0,0,0-.46-1.19l-3.36-1.48,1.48-3.36a.9.9,0,1,0-1.65-.73l-1.48,3.36L453.91,278a.9.9,0,0,0-1,1.42.79.79,0,0,0,.31.22l3.35,1.48-1.48,3.36a.92.92,0,0,0,.15,1,.82.82,0,0,0,.32.23.9.9,0,0,0,1.18-.46l1.48-3.36,3.36,1.48A.91.91,0,0,0,462.74,282.9Z"/><path class="cls-18" d="M519.53,231.43a.67.67,0,0,0,0-1l-1.95-1.95,1.95-2a.68.68,0,0,0-1-1l-2,2-2-1.95a.68.68,0,0,0-1,0,.69.69,0,0,0-.15.72.61.61,0,0,0,.15.24l2,2-1.95,2a.66.66,0,0,0-.16.71.63.63,0,0,0,.16.24.67.67,0,0,0,1,0l2-2,2,2A.69.69,0,0,0,519.53,231.43Z"/><path class="cls-9" d="M647.16,153.25a.61.61,0,0,0-.55-.66l-2.47-.23.23-2.47a.62.62,0,0,0-.55-.67.61.61,0,0,0-.66.55l-.24,2.48-2.47-.23a.61.61,0,0,0-.36,1.13.53.53,0,0,0,.25.08l2.47.23-.23,2.48a.6.6,0,0,0,.3.58.57.57,0,0,0,.25.08.61.61,0,0,0,.67-.55l.23-2.47,2.47.23A.61.61,0,0,0,647.16,153.25Z"/><path class="cls-9" d="M373.8,299a.64.64,0,0,0-.87-.22l-2.23,1.32-1.32-2.23a.64.64,0,0,0-.88-.22.64.64,0,0,0-.22.87l1.33,2.23-2.23,1.33a.64.64,0,0,0,.39,1.18.62.62,0,0,0,.26-.09l2.23-1.32,1.32,2.22a.62.62,0,0,0,.62.31.73.73,0,0,0,.25-.08.64.64,0,0,0,.23-.88l-1.33-2.22,2.23-1.33A.64.64,0,0,0,373.8,299Z"/><path class="cls-9" d="M38.43,192.52a.64.64,0,0,0-.7.56l-.26,2.58-2.58-.27a.65.65,0,0,0-.7.57.64.64,0,0,0,.57.7l2.58.27-.27,2.57a.63.63,0,0,0,.57.7.62.62,0,0,0,.61-.31.66.66,0,0,0,.08-.26l.27-2.57,2.58.27a.66.66,0,0,0,.61-.31.62.62,0,0,0,.09-.26.65.65,0,0,0-.57-.7l-2.58-.27.27-2.57A.63.63,0,0,0,38.43,192.52Z"/></g></g></svg>