<svg xmlns="http://www.w3.org/2000/svg" viewBox="0 0 366.94 68.94"><defs><style>.cls-1{fill:#ffd683;}.cls-2{fill:#fbb515;}.cls-3{fill:#f48632;}.cls-4{fill:#ed4733;}.cls-5{fill:#184275;}</style></defs><title>shuttle-background-bottom</title><g id="Layer_2" data-name="Layer 2"><g id="plume-clouds"><path class="cls-1" d="M366.94,11.81V68.94H0V11.81C4.14,5,12.2.3,21.47.3c11.3,0,20.81,6.92,23.59,16.31,3.09-3.46,8.61-5.77,14.91-5.77a21.64,21.64,0,0,1,12.86,3.9C73.94,7.47,82.51,1.81,92.92,1.81c9.4,0,17.31,4.62,19.57,10.87,3-4.33,9.27-7.31,16.47-7.31s13.64,3.07,16.62,7.51a19.42,19.42,0,0,1,23.17-.25c3-5.26,9.14-8.86,16.23-8.86a18.79,18.79,0,0,1,15.35,7.49,19.48,19.48,0,0,1,21,1.62c3-4.44,9.3-7.51,16.62-7.51s13.44,3,16.47,7.31C256.71,6.43,264.62,1.81,274,1.81c10.41,0,19,5.66,20.09,12.93A21.64,21.64,0,0,1,307,10.84c6.3,0,11.82,2.31,14.91,5.77C324.66,7.22,334.17.3,345.47.3,354.74.3,362.8,5,366.94,11.81Z"/><path class="cls-2" d="M366.94,24.48V68.94H0V24.48C0,15.7,8.4,8.58,18.75,8.58s18.74,7.12,18.74,15.9c0,.13,0,.26,0,.39A24.7,24.7,0,0,1,48,22.56c9.22,0,17.07,4.84,20.07,11.62A16.48,16.48,0,0,1,72,33.62a12.82,12.82,0,0,1,13-12.38,13,13,0,0,1,11.16,6.24A13.65,13.65,0,0,1,108,20.84c7,0,12.68,4.83,13.4,11a17.85,17.85,0,0,1,3.22-.3A16.73,16.73,0,0,1,131.46,33c2.16-7.44,10.43-13,20.31-13,7.47,0,14,3.15,17.69,7.9a16.14,16.14,0,0,1,28.6-.7c3.76-4.36,10-7.2,17.11-7.2,9.88,0,18.15,5.53,20.31,13a16.73,16.73,0,0,1,6.84-1.42,17.85,17.85,0,0,1,3.22.3c.72-6.21,6.44-11,13.4-11a13.65,13.65,0,0,1,11.94,6.64A13,13,0,0,1,282,21.24,12.82,12.82,0,0,1,295,33.62a16.48,16.48,0,0,1,3.85.56c3-6.78,10.85-11.62,20.07-11.62a24.7,24.7,0,0,1,10.55,2.31c0-.13,0-.26,0-.39,0-8.78,8.39-15.9,18.74-15.9S366.94,15.7,366.94,24.48Z"/><path class="cls-3" d="M366.94,38.22V68.94H0V38.22a25.9,25.9,0,0,1,16.19-5.53c11.3,0,20.8,6.92,23.58,16.3,3.09-3.46,8.61-5.76,14.91-5.76a21.67,21.67,0,0,1,12.87,3.9c1.11-7.27,9.68-12.93,20.09-12.93,9.4,0,17.3,4.62,19.56,10.87,3-4.34,9.27-7.31,16.48-7.31s13.63,3.06,16.61,7.51a19.09,19.09,0,0,1,11.76-4,18.66,18.66,0,0,1,15,7.22c2.17-7.23,9.22-12.52,17.6-12.52a18.32,18.32,0,0,1,16.93,10.68,18.84,18.84,0,0,1,13.35-5.38,19.09,19.09,0,0,1,11.76,4c3-4.45,9.3-7.51,16.61-7.51s13.45,3,16.48,7.31C262,38.82,269.9,34.2,279.3,34.2c10.41,0,19,5.66,20.09,12.93a21.67,21.67,0,0,1,12.87-3.9c6.3,0,11.82,2.3,14.91,5.76,2.78-9.38,12.28-16.3,23.58-16.3A25.9,25.9,0,0,1,366.94,38.22Z"/><rect class="cls-4" x="263.2" width="11.35" height="68.94"/><rect class="cls-4" x="328.39" width="11.35" height="68.94"/><rect class="cls-3" x="274.55" width="10.77" height="68.94"/><rect class="cls-3" x="317.62" width="10.77" height="68.94"/><rect class="cls-2" x="285.32" width="10.77" height="68.94"/><rect class="cls-2" x="306.86" width="10.76" height="68.94"/><rect class="cls-1" x="296.09" width="10.77" height="68.94"/><path class="cls-5" d="M359.42,60.09h0a19.69,19.69,0,0,0-28.85,1.52c-4.18-6.76-12.18-11.34-21.36-11.34-11.3,0-20.81,6.92-23.6,16.31-3.09-3.46-8.6-5.77-14.9-5.77a21.67,21.67,0,0,0-12.87,3.9c-1.1-7.27-9.67-12.93-20.08-12.93-9.41,0-17.31,4.62-19.57,10.87-3-4.33-9.27-7.31-16.47-7.31s-13.65,3.07-16.63,7.51a19,19,0,0,0-11.75-4,19.24,19.24,0,0,0-9.28,2.34,18.77,18.77,0,0,0-15.34-7.49c-7.09,0-13.25,3.6-16.23,8.86a19.44,19.44,0,0,0-23.18.25c-3-4.44-9.3-7.51-16.61-7.51s-13.44,3-16.48,7.31C74,56.4,66.05,51.78,56.66,51.78c-10.42,0-19,5.66-20.1,12.93a21.63,21.63,0,0,0-12.85-3.9c-6.3,0-11.82,2.31-14.92,5.77A22.05,22.05,0,0,0,0,54.77V68.94H366.94V54.16A19.6,19.6,0,0,0,359.42,60.09Z"/></g></g></svg>