<svg xmlns="http://www.w3.org/2000/svg" viewBox="0 0 669.65 75.4"><defs><style>.cls-1{fill:#ffd683;}.cls-2{fill:#fbb515;}.cls-3{fill:#f48632;}.cls-4{fill:#ed4733;}.cls-5{fill:#184275;}.cls-6{fill:none;}.cls-7{fill:#414042;}.cls-8{fill:#535353;}.cls-9{fill:#7b7b7b;}.cls-10{fill:#006ea6;}.cls-11{fill:#46a7cc;}.cls-12{fill:#fff;}</style></defs><title>shuttle-background-wide-bottom</title><g id="Layer_2" data-name="Layer 2"><g id="plume-clouds"><path class="cls-1" d="M669.65,11.21V75.4H0V11.21C4,4.54,11.88,0,20.9,0c11,0,20.26,6.74,23,15.89,3-3.38,8.38-5.63,14.51-5.63a21.07,21.07,0,0,1,12.53,3.8C72,7,80.32,1.48,90.45,1.48c9.15,0,16.85,4.49,19,10.58,3-4.22,9-7.12,16-7.12s13.28,3,16.18,7.31A18.91,18.91,0,0,1,164.26,12c2.91-5.12,8.9-8.63,15.8-8.63A18.29,18.29,0,0,1,195,10.68a19,19,0,0,1,20.47,1.57c2.9-4.32,9.05-7.31,16.18-7.31s13.08,2.9,16,7.12c2.2-6.09,9.9-10.58,19.05-10.58,10.14,0,18.48,5.51,19.56,12.58a21,21,0,0,1,12.51-3.8c6.14,0,11.51,2.25,14.52,5.63C316,6.74,325.28,0,336.28,0a24.5,24.5,0,0,1,20,9.79,19.23,19.23,0,0,1,28.94-.27c3.17-4.76,9.92-8,17.74-8,9.15,0,16.85,4.49,19.05,10.58,2.95-4.22,9-7.12,16-7.12s13.28,3,16.18,7.31a19,19,0,0,1,20.47-1.57,18.31,18.31,0,0,1,15-7.3c6.9,0,12.88,3.51,15.79,8.63a18.91,18.91,0,0,1,22.55.24c2.91-4.32,9.06-7.31,16.18-7.31s13.09,2.9,16,7.12C562.36,6,570.05,1.48,579.2,1.48c10.14,0,18.48,5.51,19.56,12.58a21,21,0,0,1,12.52-3.8c6.13,0,11.5,2.25,14.51,5.63,2.71-9.15,12-15.89,23-15.89C657.78,0,665.62,4.54,669.65,11.21Z"/><path class="cls-2" d="M669.65,27.29V75.4H0V27.29c0-8.55,8.18-15.48,18.26-15.48S36.5,18.74,36.5,27.29c0,.12,0,.25,0,.38a24.11,24.11,0,0,1,10.28-2.25c9,0,16.61,4.71,19.53,11.31A16.23,16.23,0,0,1,70,36.18a12.48,12.48,0,0,1,12.6-12,12.64,12.64,0,0,1,10.87,6.08,13.28,13.28,0,0,1,11.62-6.47c6.77,0,12.34,4.71,13.05,10.75a16.71,16.71,0,0,1,3.13-.29A16.33,16.33,0,0,1,128,35.58C130.06,28.34,138.11,23,147.74,23,155,23,161.36,26,165,30.65A15.7,15.7,0,0,1,192.79,30c3.66-4.25,9.76-7,16.66-7,9.61,0,17.66,5.38,19.76,12.62a16.43,16.43,0,0,1,6.67-1.38,17,17,0,0,1,3.13.29c.7-6,6.27-10.75,13.05-10.75a13.27,13.27,0,0,1,11.61,6.47,12.64,12.64,0,0,1,10.86-6.08,12.48,12.48,0,0,1,12.61,12.05,16.15,16.15,0,0,1,3.75.55c2.92-6.6,10.56-11.31,19.54-11.31a24,24,0,0,1,10.26,2.25v-.38c0-8.55,8.17-15.48,18.24-15.48,8.6,0,15.82,5,17.74,11.85a19.25,19.25,0,0,1,28.76,4.93A12.75,12.75,0,0,1,406,30.21a13.28,13.28,0,0,1,11.62-6.47c6.77,0,12.34,4.71,13,10.75a16.87,16.87,0,0,1,3.13-.29,16.42,16.42,0,0,1,6.66,1.38C442.54,28.34,450.59,23,460.21,23c6.9,0,13,2.76,16.65,7a15.71,15.71,0,0,1,27.84.68C508.29,26,514.65,23,521.92,23c9.62,0,17.67,5.38,19.77,12.62a16.35,16.35,0,0,1,6.66-1.38,16.87,16.87,0,0,1,3.13.29c.7-6,6.27-10.75,13-10.75a13.28,13.28,0,0,1,11.62,6.47A12.62,12.62,0,0,1,587,24.13a12.48,12.48,0,0,1,12.6,12.05,16.07,16.07,0,0,1,3.75.55c2.92-6.6,10.57-11.31,19.54-11.31a24.06,24.06,0,0,1,10.27,2.25c0-.13,0-.26,0-.38,0-8.55,8.17-15.48,18.24-15.48S669.65,18.74,669.65,27.29Z"/><path class="cls-3" d="M669.65,45.5V75.4H0V45.5a25.23,25.23,0,0,1,15.76-5.39c11,0,20.25,6.74,23,15.87,3-3.36,8.38-5.61,14.52-5.61a21.1,21.1,0,0,1,12.53,3.8c1.08-7.08,9.41-12.59,19.55-12.59,9.15,0,16.84,4.5,19,10.58,3-4.22,9-7.11,16-7.11s13.27,3,16.17,7.3A18.66,18.66,0,0,1,148,48.49a18.19,18.19,0,0,1,14.57,7,18.2,18.2,0,0,1,33.61-1.79,18.34,18.34,0,0,1,13-5.24,18.66,18.66,0,0,1,11.44,3.86c2.9-4.32,9-7.3,16.17-7.3s13.09,2.89,16,7.11c2.2-6.08,9.9-10.58,19-10.58,10.13,0,18.48,5.51,19.56,12.59A21,21,0,0,1,304,50.37c6.13,0,11.51,2.25,14.52,5.61,2.7-9.13,11.95-15.87,22.95-15.87a25.4,25.4,0,0,1,13.34,3.7,22.22,22.22,0,0,1,31.71.35,25.06,25.06,0,0,1,11.31-2.58c9.16,0,16.84,4.5,19,10.58,3-4.22,9-7.11,16.05-7.11s13.26,3,16.16,7.3a18.67,18.67,0,0,1,11.45-3.86,18.33,18.33,0,0,1,13,5.24A17.83,17.83,0,0,1,490,43.34c8.16,0,15,5.15,17.13,12.18a18.21,18.21,0,0,1,14.57-7,18.69,18.69,0,0,1,11.45,3.86c2.9-4.32,9-7.3,16.16-7.3s13.09,2.89,16,7.11c2.2-6.08,9.89-10.58,19-10.58,10.13,0,18.47,5.51,19.55,12.59a21.05,21.05,0,0,1,12.53-3.8c6.13,0,11.51,2.25,14.51,5.61,2.71-9.13,11.95-15.87,22.95-15.87A25.2,25.2,0,0,1,669.65,45.5Z"/><rect class="cls-4" x="551.45" y="24.54" width="11.54" height="50.75"/><rect class="cls-4" x="617.74" y="24.54" width="11.54" height="50.75"/><rect class="cls-3" x="562.99" y="24.54" width="10.95" height="50.75"/><rect class="cls-3" x="606.79" y="24.54" width="10.95" height="50.75"/><rect class="cls-2" x="573.94" y="24.54" width="10.95" height="50.75"/><rect class="cls-2" x="595.85" y="24.54" width="10.94" height="50.75"/><rect class="cls-1" x="584.9" y="24.54" width="10.95" height="50.75"/><path class="cls-5" d="M669.65,75.4H0V61.79A21,21,0,0,1,7.84,73.14c2.77-3.33,7.69-5.55,13.31-5.55a18.31,18.31,0,0,1,11.46,3.75c1-7,8.64-12.42,17.93-12.42C58.92,58.92,66,63.35,68,69.36c2.71-4.16,8.26-7,14.7-7s12.15,3,14.81,7.21a16.37,16.37,0,0,1,20.68-.24A16.58,16.58,0,0,1,146.34,68a16.36,16.36,0,0,1,18.76,1.55c2.65-4.26,8.3-7.21,14.83-7.21s12,2.86,14.69,7c2-6,9.06-10.44,17.45-10.44,9.29,0,16.94,5.43,17.91,12.42a18.39,18.39,0,0,1,11.48-3.75c5.63,0,10.54,2.22,13.3,5.55a21.7,21.7,0,0,1,21.05-15.67,21.93,21.93,0,0,1,19.05,10.89,17.05,17.05,0,0,1,13.49-6.8,16.74,16.74,0,0,1,11.53,4.65,21.68,21.68,0,0,1,13.18-4.3c7.72,0,14.4,3.77,17.6,9.25a19.52,19.52,0,0,1,22.84.16c1-7,8.67-12.48,18-12.48,8.42,0,15.52,4.46,17.54,10.49,2.72-4.18,8.31-7.06,14.77-7.06s12.22,3,14.89,7.25a16.44,16.44,0,0,1,20.78-.24A16.67,16.67,0,0,1,487.79,68a16.43,16.43,0,0,1,18.85,1.56c2.67-4.29,8.34-7.25,14.91-7.25s12,2.88,14.76,7.06c2-6,9.11-10.49,17.54-10.49,9.33,0,17,5.46,18,12.48a18.46,18.46,0,0,1,11.54-3.77c5.65,0,10.58,2.23,13.36,5.57A22.14,22.14,0,0,1,637,68.32a17.2,17.2,0,0,1,13.57-6.83,17,17,0,0,1,12.29,5.37h0a17.88,17.88,0,0,1,6.74-5.73Z"/></g><g id="shuttle"><path class="cls-6" d="M626.16,0V7.27l-1.85,6.36,5,10.91H602.5l5.2-10.91h-7.37A34.34,34.34,0,0,1,601.54,23h-.94c0,.5,0,1,0,1.53H580.28c0-.52,0-1,0-1.53h-.94a34.34,34.34,0,0,1,1.21-9.38h-7.52l5.24,10.91H551.45l5-10.91L554.6,7.27V0H0V75.4H669.65V0Z"/><path class="cls-7" d="M582.51,9l-1-1.75h-6.58l-1.86,6.36h7.52A14.59,14.59,0,0,1,582.68,9Z"/><path class="cls-7" d="M599.28,7.27l-1,1.75h0a14.59,14.59,0,0,1,2.09,4.61h7.37l-1.86-6.36Z"/><path d="M597,24.54h3.64c0-.52,0-1,0-1.53H597C597,23.51,597,24,597,24.54Z"/><path class="cls-8" d="M593.24,9c2,2.59,3.52,7.81,3.73,14h4.57a34.34,34.34,0,0,0-1.21-9.38A14.59,14.59,0,0,0,598.24,9Z"/><path d="M580.32,23c0,.5,0,1,0,1.53h3.36c0-.52,0-1,0-1.53Z"/><path class="cls-8" d="M587.4,9h-4.72a14.59,14.59,0,0,0-2.09,4.61A34.34,34.34,0,0,0,579.38,23h4.29C583.88,16.83,585.35,11.61,587.4,9Z"/><path class="cls-9" d="M593.24,9H587.4c-2,2.59-3.52,7.81-3.73,14,0,.5,0,1,0,1.53H597c0-.52,0-1,0-1.53C596.76,16.83,595.29,11.61,593.24,9Z"/><polygon class="cls-3" points="599.28 7.27 605.84 7.27 605.84 0 601.76 0 601.76 2.85 599.28 7.27"/><polygon class="cls-3" points="581.5 7.27 578.97 2.85 578.97 0 574.93 0 574.93 7.27 581.5 7.27"/><polygon class="cls-10" points="564.84 7.27 573.07 7.27 574.93 7.27 574.93 0 564.79 0 564.79 7.27 564.84 7.27"/><rect class="cls-11" x="554.6" width="10.19" height="7.27"/><polygon class="cls-8" points="573.07 7.27 564.84 7.27 564.79 7.27 554.6 7.27 556.47 13.63 573.07 13.63 574.93 7.27 573.07 7.27"/><polygon class="cls-4" points="551.45 24.54 578.32 24.54 573.07 13.63 556.47 13.63 551.45 24.54"/><rect class="cls-10" x="616.03" width="10.14" height="7.27"/><polygon class="cls-11" points="608.35 7.27 616.02 7.27 616.02 7.27 616.02 0 605.84 0 605.84 7.27 608.35 7.27"/><polygon class="cls-8" points="616.02 7.27 608.35 7.27 605.84 7.27 607.7 13.63 608.35 13.63 624.31 13.63 626.16 7.27 616.02 7.27 616.02 7.27"/><polygon class="cls-4" points="607.7 13.63 602.5 24.54 629.29 24.54 624.31 13.63 608.35 13.63 607.7 13.63"/><polygon class="cls-7" points="582.68 9.02 587.4 9.02 593.24 9.02 598.24 9.02 598.29 9.02 599.28 7.27 601.76 2.85 578.97 2.85 581.5 7.27 582.51 9.02 582.68 9.02"/><rect class="cls-12" x="578.97" width="22.79" height="2.85"/></g></g></svg>