<svg xmlns="http://www.w3.org/2000/svg" viewBox="0 0 366.94 371.33"><defs><style>.cls-1,.cls-14{fill:none;}.cls-2{fill:#414042;}.cls-3{fill:#535353;}.cls-4{fill:#7b7b7b;}.cls-5{fill:#f48632;}.cls-6{fill:#006ea6;}.cls-7{fill:#46a7cc;}.cls-8{fill:#023b5a;}.cls-9{fill:#021b29;}.cls-10{fill:#ed4733;}.cls-11{fill:#34bed0;}.cls-12{fill:#b8e2e9;}.cls-13{fill:#fff;}.cls-14{stroke:#f27326;stroke-miterlimit:10;stroke-width:2px;}.cls-15{fill:#00a9c2;}.cls-16{fill:#a7dfe7;}.cls-17{fill:#9adaf6;}.cls-18{fill:#09d;}.cls-19{fill:#0070b7;}.cls-20{fill:#fbb515;}.cls-21{fill:#ff6c00;}.cls-22{fill:#f67b6d;}.cls-23{fill:#ffd683;}</style></defs><title>shuttle-background-top</title><g id="Layer_2" data-name="Layer 2"><g id="plume-clouds"><rect class="cls-1" width="366.94" height="371.33"/></g><g id="shuttle"><rect class="cls-2" x="284.46" y="354.35" width="34.69" height="6.26"/><path d="M311.57,371.33h-10.2c0-7,2.28-12.93,5.1-12.93S311.57,364.31,311.57,371.33Z"/><path class="cls-3" d="M312.45,369.83h-12c0-8.55,2.68-15.48,6-15.48S312.45,361.28,312.45,369.83Z"/><path d="M301.75,371.33h-10.2c0-7,2.28-12.93,5.1-12.93S301.75,364.31,301.75,371.33Z"/><path class="cls-3" d="M302.63,369.83h-12c0-8.55,2.68-15.48,6-15.48S302.63,361.28,302.63,369.83Z"/><path class="cls-4" d="M308,371.33H294.86c0-9.38,2.94-17,6.56-17S308,362,308,371.33Z"/><path class="cls-5" d="M326.7,224.5c0-18.13-11.67-32.82-25.24-32.82s-25.09,14.69-25.09,32.82V354.35H326.7Z"/><path class="cls-6" d="M276.32,232.15a10,10,0,0,1,10,10V354.35h-10V232.15"/><path class="cls-7" d="M266.35,242.12a10,10,0,0,1,10-10v122.2h-10Z"/><rect class="cls-8" x="266.35" y="252.16" width="9.97" height="5.32"/><rect class="cls-8" x="266.35" y="272.1" width="9.97" height="5.32"/><rect class="cls-8" x="266.35" y="292.8" width="9.97" height="5.32"/><rect class="cls-9" x="276.32" y="252.16" width="9.97" height="5.32"/><rect class="cls-9" x="276.32" y="272.1" width="9.97" height="5.32"/><rect class="cls-9" x="276.32" y="292.8" width="9.97" height="5.32"/><polygon class="cls-3" points="266.3 354.35 286.29 354.35 284.46 360.61 268.13 360.61 266.3 354.35"/><polygon class="cls-10" points="268.13 360.61 284.46 360.61 289.62 371.33 263.2 371.33 268.13 360.61"/><path class="cls-6" d="M326.7,232.15a10,10,0,0,1,10,10V354.35h-10V232.15"/><path class="cls-7" d="M316.73,242.12a10,10,0,0,1,10-10v122.2h-10Z"/><rect class="cls-8" x="316.73" y="252.16" width="9.97" height="5.32"/><rect class="cls-8" x="316.73" y="272.1" width="9.97" height="5.32"/><rect class="cls-8" x="316.73" y="292.8" width="9.97" height="5.32"/><rect class="cls-9" x="326.7" y="252.16" width="9.97" height="5.32"/><rect class="cls-9" x="326.7" y="272.1" width="9.97" height="5.32"/><rect class="cls-9" x="326.7" y="292.8" width="9.97" height="5.32"/><polygon class="cls-3" points="316.68 354.35 336.67 354.35 334.84 360.61 318.52 360.61 316.68 354.35"/><polygon class="cls-10" points="318.52 360.61 334.84 360.61 339.74 371.33 313.4 371.33 318.52 360.61"/><polygon class="cls-2" points="290.27 350.01 293.74 356.07 309.26 356.07 312.68 350.01 290.27 350.01"/><path class="cls-11" d="M308.41,260.2s2.49,7.77,5.81,17.1A86.82,86.82,0,0,0,328,301.86c5.6,7.15,17.81,14.37,17.81,14.37a6,6,0,0,1,2.65,5V339.1a6,6,0,0,1-6,6H260.29a6,6,0,0,1-6-6V321.21a6,6,0,0,1,2.65-5s12.22-7.22,17.81-14.37a87.09,87.09,0,0,0,13.79-24.56c3.31-9.33,5.8-17.1,5.8-17.1Z"/><path class="cls-12" d="M260.29,342.35A3.26,3.26,0,0,1,257,339.1V321.21a3.26,3.26,0,0,1,1.38-2.65c1.21-.72,12.84-7.76,18.5-15a89.28,89.28,0,0,0,14.21-25.34c2.33-6.54,4.26-12.37,5.21-15.26H306.4c1,2.89,2.88,8.72,5.21,15.26a89.53,89.53,0,0,0,14.21,25.34c5.66,7.23,17.29,14.27,18.5,15a3.24,3.24,0,0,1,1.38,2.65V339.1a3.26,3.26,0,0,1-3.25,3.25Z"/><path class="cls-8" d="M304.26,247a3.24,3.24,0,0,0-5.77,0l-7.09,14.48h20.12Z"/><path class="cls-13" d="M312.65,266.39a11.19,11.19,0,1,0-22.38,0V350h22.41Z"/><path class="cls-8" d="M306.36,266.21a4.95,4.95,0,1,0-9.89,0h-3.9a8.89,8.89,0,1,1,17.78,0Z"/><circle class="cls-14" cx="301.37" cy="208.18" r="5.6"/><circle class="cls-14" cx="301.37" cy="223.16" r="5.6"/><rect class="cls-8" x="290.27" y="310.37" width="22.4" height="2.96"/><rect class="cls-8" x="290.27" y="319.43" width="22.4" height="2.96"/><rect class="cls-8" x="290.27" y="328.49" width="22.4" height="2.96"/></g><g id="satellite"><rect class="cls-15" x="268.21" y="59.6" width="5.33" height="2.15" transform="translate(39.57 214.14) rotate(-46.19)"/><rect class="cls-16" x="254.05" y="46.01" width="5.33" height="2.15" transform="translate(44.89 199.56) rotate(-46.14)"/><rect class="cls-17" x="271.09" y="42.26" width="5.33" height="2.15" transform="translate(52.94 210.84) rotate(-46.18)"/><path class="cls-13" d="M263,67.3a3,3,0,0,1-4.19.09l-8.33-8a3,3,0,0,1-.09-4.19l14.15-14.74a3,3,0,0,1,4.19-.09l8.33,8a3,3,0,0,1,.09,4.19Z"/><path class="cls-13" d="M288.64,42.53a10.07,10.07,0,0,1-14.54-14"/><path class="cls-16" d="M274.4,42.82a10.07,10.07,0,0,0,14.24-.29l-7.29-7"/><path class="cls-13" d="M287.68,32.38a2.37,2.37,0,1,0-3.94-.87l-2,2.12,1.55,1.48,2-2.11A2.39,2.39,0,0,0,287.68,32.38Z"/><path class="cls-16" d="M282.52,34.4l.74.71,2-2.11a2.36,2.36,0,0,0,2.32-4"/><path class="cls-16" d="M290.07,41a1.18,1.18,0,0,0,0-1.67l-12.83-12.3a1.17,1.17,0,0,0-1.67,0l-1.44,1.49,14.54,14Z"/><path class="cls-15" d="M281.35,35.54l7.29,7,1.43-1.5a1.18,1.18,0,0,0,0-1.67l-6.4-6.14"/><path class="cls-16" d="M272.93,44.38l4.15,4a3,3,0,0,1,.09,4.19L263,67.3a3,3,0,0,1-4.19.09l-4.22-4"/><path class="cls-16" d="M263.07,67.26a3,3,0,0,1-4.19.08l-8.34-8a3,3,0,0,1-.08-4.18"/><path class="cls-15" d="M256.78,61.22l-2.12,2.07,4.22,4.05a3,3,0,0,0,4.19-.08Z"/><path class="cls-15" d="M238.73,22.45a3,3,0,0,1,4.19-.09l16.78,16.1a3,3,0,0,1,.09,4.19l-7.38,7.69a3,3,0,0,1-4.19.09l-16.78-16.1a3,3,0,0,1-.09-4.19Z"/><rect class="cls-16" x="241.2" y="25.22" width="5.49" height="9.66" rx="0.98" transform="translate(53.39 185.28) rotate(-46.19)"/><rect class="cls-16" x="249.24" y="32.93" width="5.49" height="9.66" rx="0.98" transform="translate(50.28 193.44) rotate(-46.18)"/><rect class="cls-16" x="236.41" y="30.2" width="5.49" height="9.65" rx="0.98" transform="translate(48.31 183.36) rotate(-46.19)"/><rect class="cls-16" x="244.45" y="37.92" width="5.49" height="9.66" rx="0.98" transform="translate(45.2 191.51) rotate(-46.18)"/><path class="cls-15" d="M275.34,57.57a3,3,0,0,1,4.18-.09l16.78,16.1a3,3,0,0,1,.09,4.19L289,85.46a3,3,0,0,1-4.19.09L268,69.45a3,3,0,0,1-.08-4.19Z"/><rect class="cls-16" x="277.8" y="60.33" width="5.49" height="9.66" rx="0.98" transform="translate(39.29 222.48) rotate(-46.18)"/><path class="cls-16" d="M286.32,68.26a1,1,0,0,1,1.39,0l5.55,5.32a1,1,0,0,1,0,1.39l-2.44,2.55a1,1,0,0,1-1.39,0l-5.55-5.32a1,1,0,0,1,0-1.39Z"/><path class="cls-16" d="M273.49,65.53a1,1,0,0,1,1.39,0l5.55,5.32a1,1,0,0,1,0,1.39L278,74.76a1,1,0,0,1-1.39,0l-5.55-5.32a1,1,0,0,1,0-1.39Z"/><path class="cls-16" d="M281.54,73.25a1,1,0,0,1,1.38,0l5.56,5.33a1,1,0,0,1,0,1.39l-2.44,2.54a1,1,0,0,1-1.38,0l-5.56-5.33a1,1,0,0,1,0-1.38Z"/></g><g id="hexagons"><path class="cls-18" d="M339,42.43a2.57,2.57,0,0,1-1.27-.31l-5.95-3.44a2.74,2.74,0,0,1-1.27-2.2V29.6a2.73,2.73,0,0,1,1.27-2.19L337.69,24a2.78,2.78,0,0,1,2.54,0l6,3.44a2.76,2.76,0,0,1,1.27,2.19v6.88a2.76,2.76,0,0,1-1.27,2.2l-6,3.44A2.52,2.52,0,0,1,339,42.43Zm0-17.81a1.61,1.61,0,0,0-.78.18l-6,3.44a1.8,1.8,0,0,0-.79,1.36v6.88a1.81,1.81,0,0,0,.79,1.37l6,3.44a1.8,1.8,0,0,0,1.57,0l6-3.44a1.8,1.8,0,0,0,.78-1.37V29.6a1.78,1.78,0,0,0-.78-1.36l-6-3.44A1.65,1.65,0,0,0,339,24.62Z"/><path class="cls-19" d="M339,40.42a2.67,2.67,0,0,1-1.27-.3l-4.22-2.44a2.78,2.78,0,0,1-1.27-2.2V30.61a2.78,2.78,0,0,1,1.27-2.2L337.69,26a2.78,2.78,0,0,1,2.54,0l4.22,2.44a2.78,2.78,0,0,1,1.27,2.2v4.87a2.78,2.78,0,0,1-1.27,2.2l-4.22,2.44A2.62,2.62,0,0,1,339,40.42Zm0-13.79a1.61,1.61,0,0,0-.78.18L334,29.24a1.83,1.83,0,0,0-.78,1.37v4.87a1.8,1.8,0,0,0,.78,1.36h0l4.23,2.44a1.8,1.8,0,0,0,1.57,0L344,36.84a1.78,1.78,0,0,0,.79-1.36V30.61a1.78,1.78,0,0,0-.79-1.36l-4.22-2.44A1.65,1.65,0,0,0,339,26.63Z"/><path class="cls-11" d="M339,38.42a2.57,2.57,0,0,1-1.27-.31l-2.48-1.43a2.78,2.78,0,0,1-1.27-2.2V31.61a2.78,2.78,0,0,1,1.27-2.2L337.69,28a2.78,2.78,0,0,1,2.54,0l2.49,1.43a2.78,2.78,0,0,1,1.27,2.2v2.87a2.78,2.78,0,0,1-1.27,2.2l-2.49,1.43A2.52,2.52,0,0,1,339,38.42Zm-3.27-2.58,2.49,1.44a1.8,1.8,0,0,0,1.57,0l2.49-1.44a1.81,1.81,0,0,0,.78-1.36V31.61a1.81,1.81,0,0,0-.78-1.36l-2.49-1.44a1.8,1.8,0,0,0-1.57,0l-2.49,1.44a1.8,1.8,0,0,0-.79,1.36v2.87a1.8,1.8,0,0,0,.79,1.36Z"/><path class="cls-10" d="M255.17,128.34A2.45,2.45,0,0,1,254,128l-5.74-3.31a2.69,2.69,0,0,1-1.22-2.12V116a2.69,2.69,0,0,1,1.22-2.12l5.74-3.31a2.65,2.65,0,0,1,2.45,0l5.73,3.31a2.68,2.68,0,0,1,1.23,2.12v6.62a2.68,2.68,0,0,1-1.23,2.12L256.39,128A2.45,2.45,0,0,1,255.17,128.34Zm0-17.15a1.6,1.6,0,0,0-.75.17l-5.74,3.31a1.73,1.73,0,0,0-.76,1.32v6.62a1.7,1.7,0,0,0,.76,1.31l5.74,3.32a1.74,1.74,0,0,0,1.51,0l5.74-3.32a1.73,1.73,0,0,0,.76-1.31V116a1.76,1.76,0,0,0-.76-1.32l-5.74-3.31A1.64,1.64,0,0,0,255.17,111.19Z"/><path class="cls-5" d="M255.17,126.41a2.45,2.45,0,0,1-1.22-.3l-4.06-2.35a2.64,2.64,0,0,1-1.23-2.11V117a2.66,2.66,0,0,1,1.22-2.11l4.07-2.35a2.63,2.63,0,0,1,2.44,0l4.07,2.35a2.63,2.63,0,0,1,1.22,2.11v4.7a2.63,2.63,0,0,1-1.22,2.11l-4.07,2.35A2.45,2.45,0,0,1,255.17,126.41Zm0-13.29a1.6,1.6,0,0,0-.75.17l-4.07,2.35a1.74,1.74,0,0,0-.76,1.31v4.7a1.74,1.74,0,0,0,.76,1.31l4.07,2.35a1.74,1.74,0,0,0,1.51,0L260,123a1.73,1.73,0,0,0,.75-1.31V117a1.73,1.73,0,0,0-.75-1.31l-4.07-2.35A1.64,1.64,0,0,0,255.17,113.12Z"/><path class="cls-20" d="M255.17,124.48a2.45,2.45,0,0,1-1.22-.3l-2.39-1.38a2.68,2.68,0,0,1-1.23-2.12v-2.76a2.68,2.68,0,0,1,1.23-2.12l2.39-1.38a2.65,2.65,0,0,1,2.45,0l2.39,1.38a2.69,2.69,0,0,1,1.22,2.12v2.76a2.69,2.69,0,0,1-1.22,2.12l-2.4,1.38A2.45,2.45,0,0,1,255.17,124.48Zm0-9.43a1.6,1.6,0,0,0-.75.17l-2.4,1.39a1.73,1.73,0,0,0-.76,1.31v2.76A1.73,1.73,0,0,0,252,122h0l2.4,1.38a1.67,1.67,0,0,0,1.51,0l2.39-1.38a1.7,1.7,0,0,0,.76-1.31v-2.76a1.7,1.7,0,0,0-.76-1.31l-2.39-1.39A1.64,1.64,0,0,0,255.17,115.05Z"/></g><g id="stars"><path class="cls-20" d="M45.57,355.71a.62.62,0,0,0-.83-.3l-2.33,1.06-1.07-2.32a.62.62,0,0,0-.83-.31.63.63,0,0,0-.31.83L41.27,357,39,358.07a.61.61,0,0,0-.31.83.62.62,0,0,0,.57.37.58.58,0,0,0,.26-.06l2.32-1.07,1.07,2.33a.63.63,0,0,0,.57.36.58.58,0,0,0,.26-.06.61.61,0,0,0,.31-.83l-1.06-2.32,2.32-1.07A.65.65,0,0,0,45.57,355.71Z"/><path class="cls-18" d="M17.69,168.07a.78.78,0,0,0-.85-.72l-3.2.25-.25-3.2a.79.79,0,0,0-1.58.12l.26,3.21L8.86,168a.79.79,0,0,0-.72.85.77.77,0,0,0,.51.68.78.78,0,0,0,.34.05l3.2-.26.26,3.21a.78.78,0,0,0,.51.68.91.91,0,0,0,.33,0,.79.79,0,0,0,.73-.85l-.26-3.2,3.21-.26A.78.78,0,0,0,17.69,168.07Z"/><path class="cls-21" d="M20.66,337.12a.63.63,0,0,0-.29-.85L18,335.13l1.14-2.33a.64.64,0,0,0-1.15-.56l-1.13,2.34-2.34-1.13a.63.63,0,0,0-.77,1,.62.62,0,0,0,.22.17l2.33,1.13-1.13,2.34a.64.64,0,0,0,.08.68.68.68,0,0,0,.21.17.65.65,0,0,0,.86-.3l1.13-2.33,2.33,1.13A.63.63,0,0,0,20.66,337.12Z"/><path class="cls-21" d="M266.94,172.54a.83.83,0,0,0-.38-1.11l-3-1.47,1.47-3a.84.84,0,0,0-.38-1.11.85.85,0,0,0-1.11.39l-1.47,3-3-1.47a.83.83,0,0,0-1,1.27.76.76,0,0,0,.28.22l3,1.47-1.47,3a.82.82,0,0,0,.1.89,1,1,0,0,0,.28.22.83.83,0,0,0,1.11-.39l1.47-3,3,1.47A.82.82,0,0,0,266.94,172.54Z"/><path class="cls-13" d="M158.29,365.33a.82.82,0,0,0-.75-.89l-3.35-.32.31-3.35a.82.82,0,0,0-.75-.9.83.83,0,0,0-.9.74l-.31,3.36-3.35-.31a.83.83,0,0,0-.49,1.54.75.75,0,0,0,.33.1l3.36.32-.32,3.35a.85.85,0,0,0,.41.8,1,1,0,0,0,.34.1.82.82,0,0,0,.9-.75l.31-3.35,3.36.31A.82.82,0,0,0,158.29,365.33Z"/><path class="cls-13" d="M354.76,223.62a.82.82,0,0,0-.74-.9l-3.36-.31.32-3.35a.85.85,0,0,0-.75-.91.83.83,0,0,0-.9.75l-.31,3.36-3.36-.31a.82.82,0,0,0-.9.74.84.84,0,0,0,.41.8,1,1,0,0,0,.34.1l3.35.32-.31,3.35a.82.82,0,0,0,.41.79.76.76,0,0,0,.34.11.83.83,0,0,0,.9-.75l.31-3.35,3.35.31A.82.82,0,0,0,354.76,223.62Z"/><path class="cls-20" d="M255.47,273.64a.74.74,0,0,0-.8-.67l-3,.23-.24-3a.74.74,0,0,0-.8-.68.75.75,0,0,0-.68.8l.24,3-3,.24a.75.75,0,0,0-.68.8.74.74,0,0,0,.49.63.63.63,0,0,0,.31,0l3-.23.24,3a.74.74,0,0,0,.48.64.83.83,0,0,0,.31,0,.73.73,0,0,0,.68-.8l-.23-3,3-.24A.75.75,0,0,0,255.47,273.64Z"/><path class="cls-22" d="M19.66,16a.75.75,0,0,0-.8-.68l-3,.24-.24-3a.76.76,0,0,0-.81-.68.75.75,0,0,0-.68.8l.24,3-3,.24a.75.75,0,0,0-.2,1.44.69.69,0,0,0,.32,0l3-.24.24,3a.74.74,0,0,0,.49.64.78.78,0,0,0,.31,0,.73.73,0,0,0,.68-.8L16,17l3-.24A.76.76,0,0,0,19.66,16Z"/><path class="cls-20" d="M25.38,55.16a.72.72,0,0,0-.5-.89l-2.81-.81.81-2.81a.73.73,0,0,0-.49-.9.72.72,0,0,0-.89.5l-.82,2.81-2.81-.81a.72.72,0,0,0-.67,1.24.65.65,0,0,0,.27.15l2.81.81-.81,2.81a.74.74,0,0,0,.22.75.72.72,0,0,0,1.17-.35l.81-2.81,2.81.81A.72.72,0,0,0,25.38,55.16Z"/><path class="cls-12" d="M313.68,158.77a.54.54,0,0,0-.44-.64l-2.24-.41.41-2.23a.57.57,0,0,0-.45-.65.56.56,0,0,0-.65.45l-.41,2.23-2.23-.4a.56.56,0,0,0-.65.45.58.58,0,0,0,.23.56.85.85,0,0,0,.22.09l2.24.4-.41,2.24a.55.55,0,0,0,.23.55.43.43,0,0,0,.22.09.55.55,0,0,0,.65-.45l.4-2.23,2.24.4A.54.54,0,0,0,313.68,158.77Z"/><path class="cls-15" d="M349.75,179.48a.56.56,0,0,0-.44-.65l-2.24-.4.41-2.23a.56.56,0,0,0-.45-.65.55.55,0,0,0-.65.45l-.41,2.23-2.23-.4a.55.55,0,0,0-.42,1,.47.47,0,0,0,.22.09l2.24.41-.41,2.23a.57.57,0,0,0,.23.56.54.54,0,0,0,.22.09.56.56,0,0,0,.65-.45l.4-2.23,2.24.4A.54.54,0,0,0,349.75,179.48Z"/><path class="cls-21" d="M319.48,102.61a.83.83,0,0,0-.39-1.11l-3-1.47,1.47-3a.83.83,0,1,0-1.49-.72l-1.47,3-3-1.47a.83.83,0,0,0-1,1.27,1,1,0,0,0,.28.22l3,1.47-1.47,3a.82.82,0,0,0,.11.89.71.71,0,0,0,.27.21.83.83,0,0,0,1.11-.38l1.47-3,3,1.47A.83.83,0,0,0,319.48,102.61Z"/><path class="cls-15" d="M238.91,358.65a1.16,1.16,0,0,0-.59-1.53L234,355.21l1.91-4.32a1.16,1.16,0,1,0-2.13-.94l-1.91,4.33-4.32-1.91a1.17,1.17,0,0,0-1.34,1.84,1.18,1.18,0,0,0,.4.29l4.33,1.9L229,360.73a1.16,1.16,0,0,0,.19,1.24,1.22,1.22,0,0,0,.41.29,1.16,1.16,0,0,0,1.53-.6l1.9-4.32,4.33,1.9A1.16,1.16,0,0,0,238.91,358.65Z"/><path class="cls-23" d="M241.49,313.35a.69.69,0,0,0,0-1l-2-2,2-2a.69.69,0,0,0-1-1l-2,2-2-2a.69.69,0,0,0-1,0,.7.7,0,0,0-.16.74.67.67,0,0,0,.16.25l2,2-2,2a.7.7,0,0,0-.16.74.78.78,0,0,0,.16.24.69.69,0,0,0,1,0l2-2,2,2A.69.69,0,0,0,241.49,313.35Z"/></g></g></svg>